# AST/ASF file generated using VICON BodyLanguage
# -----------------------------------------------
:version 1.10
:name VICON
:units
  mass 1.0
  length 0.45
  angle deg
:documentation
   .ast/.asf automatically generated from VICON data using
   VICON BodyBuilder and BodyLanguage model FoxedUp or BRILLIANT.MOD
:root
   order TX TY TZ RX RY RZ
   axis XYZ
   position 0 0 0  
   orientation 0 0 0 
:bonedata
  begin
     id 1 
     name lhipjoint
     direction 0.535335 -0.74333 0.401095 
     length 2.04549 
     axis 0 0 0  XYZ
  end
  begin
     id 2 
     name lfemur
     direction 0.34202 -0.939693 0  
     length 6.95643  
     axis 0 0 20  XYZ
    dof rx ry rz
    limits (-160.0 20.0)
           (-70.0 70.0)
           (-60.0 70.0)
  end
  begin
     id 3 
     name ltibia
     direction 0.34192 -0.939729 0   
     length 5.55969   
     axis 0 0 20   XYZ
    dof rx
    limits (-10.0 170.0)
  end
  begin
     id 4 
     name lfoot
     direction 0.216943 -0.596046 0.773088   
     length 2.27918   
     axis -90 7.62852e-016 20   XYZ
    dof rx rz
    limits (-45.0 90.0)
           (-70.0 20.0)
  end
  begin
     id 5 
     name ltoes
     direction 1.53519e-011 -4.21748e-011 1   
     length 1.05562   
     axis -90 7.62852e-016 20   XYZ
    dof rx
    limits (-90.0 20.0)
  end
  begin
     id 6 
     name rhipjoint
     direction -0.576368 -0.719173 0.38806   
     length 2.1142  
     axis 0 0 0  XYZ 
  end
  begin
     id 7 
     name rfemur
     direction -0.34202 -0.939693 0   
     length 7.07928   
     axis 0 0 -20   XYZ
    dof rx ry rz
    limits (-160.0 20.0)
           (-70.0 70.0)
           (-70.0 60.0)
  end
  begin
     id 8 
     name rtibia
     direction -0.34202 -0.939693 0   
     length 5.79974   
     axis 0 0 -20   XYZ
    dof rx
    limits (-10.0 170.0)
 end
 begin
     id 9 
     name rfoot
     direction -0.189288 -0.520065 0.832888   
     length 2.42173  
     axis -90 -7.62852e-016 -20   XYZ
    dof rx rz
    limits (-45.0 90.0)
           (-20.0 70.0)
  end
  begin
     id 10 
     name rtoes
     direction -1.53574e-011 -4.21658e-011 1   
     length 1.14469   
     axis -90 -7.62852e-016 -20   XYZ
    dof rx
    limits (-90.0 20.0)
  end
  begin
     id 11 
     name lowerback
     direction -0.00135702 0.993803 0.111144   
     length 1.91308   
     axis 0 0 0   XYZ
    dof rx ry rz
    limits (-20.0 45.0)
           (-30.0 30.0)
           (-30.0 30.0)
  end
  begin
     id 12 
     name upperback
     direction -0.0056745 0.999813 0.0184631   
     length 1.9212   
     axis 0 0 0   XYZ
    dof rx ry rz
    limits (-20.0 45.0)
           (-30.0 30.0)
           (-30.0 30.0)
  end
  begin
     id 13 
     name thorax
     direction -0.00733434 0.999426 -0.0330788   
     length 1.94196   
     axis 0 0 0   XYZ
    dof rx ry rz
    limits (-20.0 45.0)
           (-30.0 30.0)
           (-30.0 30.0)
  end
  begin
     id 14 
     name lowerneck
     direction 0.0563074 0.996944 -0.0541571   
     length 2.34257   
     axis 0 0 0   XYZ
    dof rx ry rz
    limits (-20.0 45.0)
           (-30.0 30.0)
           (-30.0 30.0)
  end
  begin
     id 15 
     name upperneck
     direction -0.0544519 0.976166 -0.210085   
     length 2.32506   
     axis 0 0 0   XYZ
    dof rx ry rz
    limits (-20.0 45.0)
           (-30.0 30.0)
           (-30.0 30.0)
  end
  begin
     id 16
     name head
     direction -0.0226035 0.997615 -0.0652205  
     length 2.3648  
     axis 0 0 0   XYZ
    dof rx ry rz
    limits (-20.0 45.0)
           (-30.0 30.0)
           (-30.0 30.0)
  end
  begin
     id 17 
     name lclavicle
     direction 0.92109 0.381297 -0.0787716  
     length 4.0487  
     axis 0 0 0   XYZ
    dof ry rz
    limits (-20.0 10.0)
           (0.0 20.0)
  end
  begin
     id 18 
     name lhumerus
     direction 1 -4.48986e-011 3.56724e-027   
     length 4.94991   
     axis 180 -30 -90   XYZ
    dof rx ry rz
    limits (-60.0 90.0)
           (-90.0 90.0)
           (-90.0 90.0)
  end
  begin
     id 19
     name lradius
     direction 1 -4.48981e-011 8.62147e-027   
     length 2.7606   
     axis 180 -30 -90   XYZ
    dof rx
    limits (-10.0 170.0)
  end
  begin
     id 20
     name lwrist
     direction 1 -4.48989e-011 1.59799e-026   
     length 1.3803   
     axis -1.17785e-014 90 90   XYZ
    dof ry
    limits (-180.0 0.0)
 end
  begin
     id 21 
     name lhand
     direction 1 -4.48896e-011 3.19599e-026   
     length 0.843936   
     axis -2.03931e-014 90 90   XYZ
    dof rx rz
    limits (-90.0 90.0)
           (-45.0 45.0)
  end
  begin
     id 22 
     name lfingers
     direction 1 -4.48887e-011 6.39197e-026   
     length 0.680403   
     axis -4.07862e-014 90 90   XYZ
    dof rx
    limits (0.0 90.0)
  end
  begin
     id 23
     name lthumb
     direction 0.707107 -6.348e-011 0.707107   
     length 0.976926   
     axis -90 45 2.85299e-015   XYZ
    dof rx rz
    limits (-45.0 45.0)
           (-45.0 45.0)
  end
  begin
     id 24 
     name rclavicle
     direction -0.951104 0.307692 -0.026953   
     length 4.21801  
     axis 0 0 0   XYZ 
    dof ry rz
    limits (-10.0 20.0)
           (-20.0 0.0)
  end
  begin
     id 25 
     name rhumerus
     direction -1 -4.4896e-011 -1.8171e-018  
     length 4.32982   
     axis 180 30 90   XYZ
    dof rx ry rz
    limits (-90.0 60.0)
           (-90.0 90.0)
           (-90.0 90.0)
  end
  begin
     id 26 
     name rradius
     direction -1 -4.48959e-011 8.25165e-027   
     length 3.20057   
     axis 180 30 90   XYZ
    dof rx
    limits (-10.0 170.0)
  end
  begin
     id 27 
     name rwrist
     direction -1 -4.48997e-011 1.59799e-026   
     length 1.60029   
     axis -1.17785e-014 -90 -90   XYZ
    dof ry
    limits (-180.0 0.0)
  end
  begin
     id 28
     name rhand
     direction -1 -4.49023e-011 3.19599e-026   
     length 0.960433   
     axis -2.03931e-014 -90 -90   XYZ
    dof rx rz
    limits (-90.0 90.0)
           (-45.0 45.0)
  end
  begin
     id 29
     name rfingers
     direction -1 -4.48802e-011 6.39197e-026   
     length 0.774326   
     axis -4.07862e-014 -90 -90   XYZ
    dof rx
    limits (0.0 90.0)
  end
  begin
     id 30
     name rthumb
     direction -0.707107 -6.34876e-011 0.707107   
     length 1.11178   
     axis -90 -45 -2.85299e-015   XYZ
    dof rx rz
    limits (-45.0 45.0)
           (-45.0 45.0)
  end
:hierarchy
  begin
    root lhipjoint rhipjoint lowerback
    lhipjoint lfemur
    lfemur ltibia
    ltibia lfoot
    lfoot ltoes
    rhipjoint rfemur
    rfemur rtibia
    rtibia rfoot
    rfoot rtoes
    lowerback upperback
    upperback thorax
    thorax lowerneck lclavicle rclavicle
    lowerneck upperneck
    upperneck head
    lclavicle lhumerus
    lhumerus lradius
    lradius lwrist
    lwrist lhand lthumb
    lhand lfingers
    rclavicle rhumerus
    rhumerus rradius
    rradius rwrist
    rwrist rhand rthumb
    rhand rfingers
end

#!OML:ASF C:\KaitlinTest1\Natural Motions\Nikki\Session 2\Nikki.ASF
:FULLY-SPECIFIED
:DEGREES
877
root -1.3949 16.1659 5.38525 -160.721 81.9274 -170.697
lowerback -4.56968 3.74678 -5.45221
upperback -2.13754 5.40835 -4.82879
thorax 0.320689 2.78251 -1.67765
lowerneck -7.22035 -20.6101 -4.78677
upperneck 7.30463 37.6325 3.12002
head 55.6783 63.8343 -144.995
rclavicle -1.19271e-015 1.74931e-014
rhumerus -7.12359 -11.8784 -97.9473
rradius 2.62666
rwrist 31.2431
rhand -27.5404 -8.94178
rfingers 7.12502
rthumb -0.942059 -38.9194
lclavicle -1.19271e-015 1.74931e-014
lhumerus -58.3225 24.5004 49.9425
lradius 19.9927
lwrist -31.6903
lhand -43.4618 1.85122
lfingers 7.12502
lthumb -16.3031 31.1859
rfemur -20.1475 -7.1117 20.0143
rtibia 65.6827
rfoot -10.2837 -2.92491
rtoes 3.53042e-013
lfemur -36.668 5.73126 -20.6078
ltibia 38.0927
lfoot 2.06778 -13.8039
ltoes 1.79701e-013
878
root -1.44502 16.1319 5.3907 -160.962 81.9851 -170.811
lowerback -4.80998 3.92057 -5.26529
upperback -2.20019 5.65341 -4.90666
thorax 0.413664 2.90444 -1.83317
lowerneck -6.59311 -20.5825 -5.19221
upperneck 7.51648 37.9335 3.0279
head 53.9367 62.9994 -146.746
rclavicle 4.57205e-015 -5.24792e-014
rhumerus -7.39253 -12.2526 -98.034
rradius 2.56056
rwrist 31.5488
rhand -27.6601 -8.78212
rfingers 7.12502
rthumb -1.05764 -38.7592
lclavicle 4.57205e-015 -5.24792e-014
lhumerus -59.3034 24.4678 48.9727
lradius 19.863
lwrist -31.5014
lhand -42.7551 2.79884
lfingers 7.12502
lthumb -15.6225 32.188
rfemur -18.8138 -7.54813 19.7661
rtibia 65.3721
rfoot -10.0661 -2.0436
rtoes -1.08139e-013
lfemur -36.9649 5.56777 -20.5773
ltibia 38.5664
lfoot 1.95627 -13.6532
ltoes -2.38542e-014
879
root -1.49878 16.0988 5.39471 -162.289 82.14 -172.003
lowerback -5.02228 4.1505 -5.17247
upperback -2.28965 5.98345 -5.15597
thorax 0.474306 3.07345 -2.1116
lowerneck -5.96922 -20.6464 -5.36471
upperneck 7.79677 38.2663 3.06891
head 52.4944 62.2034 -148.297
rclavicle 1.92821e-014 -2.70347e-014
rhumerus -7.75668 -12.8559 -98.2696
rradius 2.71135
rwrist 31.6784
rhand -27.814 -8.7431
rfingers 7.12502
rthumb -1.20623 -38.7194
lclavicle 1.92821e-014 -2.70347e-014
lhumerus -60.2214 24.4332 47.6218
lradius 19.6699
lwrist -31.9075
lhand -42.6537 2.91358
lfingers 7.12502
lthumb -15.5249 32.3103
rfemur -17.465 -7.89981 19.2882
rtibia 64.8972
rfoot -9.83438 -1.01915
rtoes -3.81667e-014
lfemur -37.2205 5.38708 -20.7241
ltibia 39.0381
lfoot 1.75592 -13.4999
ltoes -5.08889e-014
880
root -1.55945 16.0692 5.40161 -162.788 82.2794 -172.394
lowerback -5.24126 4.43396 -4.9597
upperback -2.38328 6.37676 -5.37176
thorax 0.547645 3.27263 -2.41524
lowerneck -5.35227 -20.7068 -5.59635
upperneck 8.07297 38.5968 3.1322
head 51.2989 61.5594 -149.663
rclavicle -1.90833e-014 -4.6118e-014
rhumerus -8.09422 -13.5531 -98.4084
rradius 2.92261
rwrist 32.1521
rhand -27.7241 -8.6306
rfingers 7.12502
rthumb -1.11948 -38.6074
lclavicle -1.90833e-014 -4.6118e-014
lhumerus -61.1508 24.5534 46.1093
lradius 19.5166
lwrist -32.4307
lhand -42.4359 3.04888
lfingers 7.12502
lthumb -15.3151 32.4618
rfemur -16.1164 -8.22387 18.9935
rtibia 64.214
rfoot -9.4459 0.0841024
rtoes -5.66139e-013
lfemur -37.5475 5.31497 -20.7722
ltibia 39.4467
lfoot 1.63687 -13.3439
ltoes -1.06549e-013
881
root -1.61631 16.0372 5.41711 -161.892 82.3953 -171.158
lowerback -5.3387 4.47628 -4.87169
upperback -2.28711 6.42504 -5.10661
thorax 0.680336 3.28769 -2.17405
lowerneck -5.10712 -20.4993 -6.24825
upperneck 8.08131 38.9795 2.77623
head 49.6981 60.4768 -151.113
rclavicle -1.53859e-013 7.4743e-014
rhumerus -8.40911 -13.2327 -98.2726
rradius 3.34098
rwrist 32.2648
rhand -27.4936 -8.4122
rfingers 7.12502
rthumb -0.896802 -38.3901
lclavicle -1.53859e-013 7.4743e-014
lhumerus -62.5553 25.0786 45.1349
lradius 19.4158
lwrist -32.3507
lhand -42.4078 3.36342
lfingers 7.12502
lthumb -15.288 32.7784
rfemur -14.4145 -8.51518 18.9369
rtibia 63.3465
rfoot -9.39544 1.08868
rtoes -1.36764e-013
lfemur -37.5664 5.36245 -20.5401
ltibia 39.7687
lfoot 1.39536 -13.2749
ltoes 5.88403e-014
882
root -1.67892 16.0122 5.43426 -163.102 82.6922 -172.109
lowerback -5.46189 4.65716 -5.0158
upperback -2.24259 6.68853 -5.14987
thorax 0.78476 3.41822 -2.11232
lowerneck -4.81006 -20.6225 -6.42394
upperneck 8.07282 38.8182 2.47809
head 47.9802 59.0371 -152.506
rclavicle -1.92821e-014 1.27222e-014
rhumerus -8.76753 -13.4323 -98.2912
rradius 3.91516
rwrist 32.6811
rhand -27.2358 -8.23041
rfingers 7.12502
rthumb -0.647831 -38.2092
lclavicle -1.92821e-014 1.27222e-014
lhumerus -63.987 25.8961 43.0948
lradius 19.2607
lwrist -33.4374
lhand -42.2976 3.38662
lfingers 7.12502
lthumb -15.1818 32.8097
rfemur -12.8652 -8.56089 18.5213
rtibia 62.3535
rfoot -9.15115 2.33778
rtoes 1.43125e-013
lfemur -37.5528 5.47448 -20.6492
ltibia 39.9831
lfoot 1.23397 -13.1867
ltoes 9.22361e-014
883
root -1.74818 15.9928 5.44813 -163.769 82.9297 -172.66
lowerback -5.69185 4.77962 -5.02667
upperback -2.27847 6.87536 -5.23274
thorax 0.884972 3.51208 -2.16113
lowerneck -4.50762 -20.5926 -6.59999
upperneck 8.24442 39.2811 2.42197
head 47.0154 58.1465 -153.541
rclavicle -6.71892e-014 9.54166e-015
rhumerus -9.08551 -13.5693 -98.4094
rradius 4.43155
rwrist 33.0592
rhand -26.9526 -7.9881
rfingers 7.12502
rthumb -0.374287 -37.9675
lclavicle -6.71892e-014 9.54166e-015
lhumerus -65.751 26.9235 40.3369
lradius 19.085
lwrist -35.007
lhand -42.1607 3.24838
lfingers 7.12502
lthumb -15.05 32.6813
rfemur -11.5822 -8.55079 18.2079
rtibia 61.2537
rfoot -8.80842 3.54951
rtoes -4.67542e-013
lfemur -37.6855 5.47118 -20.7007
ltibia 40.0832
lfoot 1.18964 -12.9665
ltoes -4.29375e-014
884
root -1.82472 15.9707 5.4628 -164.802 83.0437 -173.602
lowerback -5.84849 4.88902 -5.04645
upperback -2.32371 7.03842 -5.30826
thorax 0.933009 3.59506 -2.20576
lowerneck -4.1678 -20.6267 -6.80238
upperneck 8.34184 39.4506 2.28145
head 45.9591 57.1384 -154.516
rclavicle -1.32192e-014 -3.97569e-014
rhumerus -9.49198 -13.7671 -98.4405
rradius 5.06846
rwrist 33.4809
rhand -26.6669 -7.62933
rfingers 7.12502
rthumb -0.0984169 -37.609
lclavicle -1.32192e-014 -3.97569e-014
lhumerus -67.1316 27.3114 38.6364
lradius 18.9876
lwrist -35.5172
lhand -42.139 3.3596
lfingers 7.12502
lthumb -15.029 32.7941
rfemur -10.2995 -8.67533 17.9309
rtibia 60.061
rfoot -8.45433 4.65493
rtoes -2.00375e-013
lfemur -37.845 5.37621 -20.8019
ltibia 40.0562
lfoot 1.20605 -12.8087
ltoes -1.01778e-013
885
root -1.90795 15.9571 5.479 -165.681 83.1859 -174.371
lowerback -5.92753 5.07214 -5.0018
upperback -2.37979 7.28927 -5.40415
thorax 0.938093 3.7226 -2.30849
lowerneck -3.8001 -20.7294 -6.98487
upperneck 8.43003 39.513 2.13618
head 44.9759 56.1104 -155.386
rclavicle 2.23633e-014 3.65764e-014
rhumerus -9.97489 -14.1195 -98.3589
rradius 5.81683
rwrist 33.6854
rhand -26.4311 -7.30938
rfingers 7.12502
rthumb 0.129375 -37.2891
lclavicle 2.23633e-014 3.65764e-014
lhumerus -68.2741 27.4895 37.2294
lradius 18.8659
lwrist -35.9838
lhand -42.0719 3.56344
lfingers 7.12502
lthumb -14.9644 33.0028
rfemur -9.08997 -8.69647 17.6998
rtibia 58.7894
rfoot -8.04094 5.64574
rtoes 2.3218e-013
lfemur -37.981 5.36234 -20.9048
ltibia 39.93
lfoot 1.36402 -12.6977
ltoes -9.54166e-015
886
root -1.99762 15.946 5.49922 -166.116 83.3077 -174.759
lowerback -6.18716 5.17607 -5.04882
upperback -2.3031 7.45642 -5.39164
thorax 1.15504 3.80118 -2.22834
lowerneck -3.7165 -20.7607 -7.17264
upperneck 8.41068 39.6101 1.92493
head 44.1194 55.132 -156.133
rclavicle 4.06515e-014 3.49861e-014
rhumerus -10.0569 -14.2078 -98.3304
rradius 6.31677
rwrist 34.0611
rhand -26.3548 -6.91502
rfingers 7.12502
rthumb 0.203084 -36.8947
lclavicle 4.06515e-014 3.49861e-014
lhumerus -69.462 27.9635 35.8582
lradius 18.6986
lwrist -36.4957
lhand -41.9484 3.77972
lfingers 7.12502
lthumb -14.8454 33.2279
rfemur -7.99383 -8.63259 17.6225
rtibia 57.4313
rfoot -7.63546 6.4629
rtoes 1.97194e-013
lfemur -38.1935 5.30558 -20.9133
ltibia 39.7235
lfoot 1.61936 -12.4962
ltoes 7.95139e-015
887
root -2.09408 15.9364 5.51867 -166.749 83.3983 -175.448
lowerback -6.39192 5.30659 -5.06549
upperback -2.34778 7.65021 -5.4423
thorax 1.22818 3.89846 -2.23986
lowerneck -3.45857 -20.8569 -7.34538
upperneck 8.4274 39.5747 1.73783
head 43.3001 54.1537 -156.79
rclavicle 5.46658e-014 5.56597e-014
rhumerus -10.2001 -14.4514 -98.2712
rradius 6.76483
rwrist 34.2093
rhand -26.3057 -6.49464
rfingers 7.12502
rthumb 0.250463 -36.4742
lclavicle 5.46658e-014 5.56597e-014
lhumerus -70.5872 28.2355 34.5604
lradius 18.5639
lwrist -36.7984
lhand -41.9295 3.54993
lfingers 7.12502
lthumb -14.8273 32.9994
rfemur -7.09228 -8.63003 17.5427
rtibia 56.0195
rfoot -7.88015 6.93949
rtoes 4.32555e-013
lfemur -38.4707 5.27311 -21.0189
ltibia 39.4236
lfoot 1.91393 -12.4169
ltoes 1.22451e-013
888
root -2.19809 15.9325 5.53915 -166.994 83.4787 -175.714
lowerback -6.5006 5.38499 -5.08613
upperback -2.4021 7.76456 -5.47319
thorax 1.23437 3.95695 -2.24466
lowerneck -3.25916 -20.9027 -7.43282
upperneck 8.48727 39.7124 1.63608
head 42.6593 53.3182 -157.387
rclavicle 6.59965e-014 1.59028e-014
rhumerus -10.3257 -14.5702 -98.3169
rradius 7.17952
rwrist 34.6313
rhand -26.1614 -6.14509
rfingers 7.12502
rthumb 0.389819 -36.1245
lclavicle 6.59965e-014 1.59028e-014
lhumerus -71.8335 28.4413 33.2729
lradius 18.5025
lwrist -37.219
lhand -41.8064 3.71058
lfingers 7.12502
lthumb -14.7087 33.1688
rfemur -6.20979 -8.50492 17.5614
rtibia 54.5724
rfoot -8.6519 6.92285
rtoes 3.05333e-013
lfemur -38.7111 5.08285 -20.9749
ltibia 39.0294
lfoot 2.34957 -12.1894
ltoes -1.27222e-014
889
root -2.30459 15.9344 5.5634 -167.42 83.5547 -176.241
lowerback -6.72252 5.53448 -5.12013
upperback -2.44876 7.98639 -5.52539
thorax 1.3131 4.06816 -2.24335
lowerneck -3.03291 -21.0298 -7.55765
upperneck 8.54239 39.7798 1.52133
head 42.2789 52.6592 -157.666
rclavicle 1.00386e-014 -3.02153e-014
rhumerus -10.3462 -14.8859 -98.2344
rradius 7.58736
rwrist 34.8551
rhand -25.8685 -5.7437
rfingers 7.12502
rthumb 0.672714 -35.7224
lclavicle 1.00386e-014 -3.02153e-014
lhumerus -72.7012 28.376 32.7053
lradius 18.5288
lwrist -37.1404
lhand -41.7237 3.85604
lfingers 7.12502
lthumb -14.629 33.32
rfemur -5.40395 -8.43464 17.5781
rtibia 53.079
rfoot -9.58589 6.70828
rtoes -1.39944e-013
lfemur -39.0064 4.98567 -20.9971
ltibia 38.5511
lfoot 2.88227 -12.1285
ltoes -8.42847e-014
890
root -2.42468 15.9337 5.58629 -166.928 83.5299 -175.736
lowerback -6.68768 5.63893 -4.99131
upperback -2.47769 8.11279 -5.54464
thorax 1.28503 4.13205 -2.32863
lowerneck -2.83788 -21.125 -7.64652
upperneck 8.55102 39.7044 1.3945
head 41.7294 51.9184 -158.099
rclavicle -4.57205e-015 2.22639e-014
rhumerus -10.3052 -15.1021 -98.1986
rradius 7.88627
rwrist 35.3125
rhand -25.8339 -5.30623
rfingers 7.12502
rthumb 0.706122 -35.2848
lclavicle -4.57205e-015 2.22639e-014
lhumerus -74.0169 28.7585 31.0653
lradius 18.4418
lwrist -38.2749
lhand -41.4087 3.8429
lfingers 7.12502
lthumb -14.3254 33.3287
rfemur -4.63905 -8.52524 17.718
rtibia 51.5505
rfoot -10.4074 6.58951
rtoes 5.725e-014
lfemur -39.1856 4.70353 -20.8509
ltibia 37.9675
lfoot 3.53626 -11.9577
ltoes 1.25632e-013
